# MagicaVoxel @ Ephtracy

# group
o 

# material
mtllib frog.mtl
usemtl palette

# normals
vn -1 0 0
vn 1 0 0
vn 0 0 1
vn 0 0 -1
vn 0 -1 0
vn 0 1 0

# texcoords
vt 0.845703 0.5
vt 0.849609 0.5
vt 0.908203 0.5
vt 0.994141 0.5

# verts
v -1 0 1
v -1 0 0.6
v -1 0 -0.2
v -1 0 -0.7
v -1 0.4 1
v -1 0.4 0.6
v -1 0.4 -0.2
v -1 0.4 -0.7
v -0.9 0 0.6
v -0.9 0 0.2
v -0.9 0.4 0.6
v -0.9 0.4 0.2
v -0.4 0 0.2
v -0.4 0 -0.2
v -0.4 0 -0.7
v -0.4 0 -1
v -0.4 0.4 1
v -0.4 0.4 0.2
v -0.4 0.4 -0.2
v -0.4 0.4 -0.7
v -0.4 0.6 -0.8
v -0.4 0.6 -1
v -0.4 0.8 1
v -0.4 0.8 -0.8
v -0.4 0.8 -1
v 0.4 0 0.2
v 0.4 0 -0.2
v 0.4 0 -0.7
v 0.4 0 -1
v 0.4 0.4 1
v 0.4 0.4 0.2
v 0.4 0.4 -0.2
v 0.4 0.4 -0.7
v 0.4 0.6 -0.8
v 0.4 0.6 -1
v 0.4 0.8 1
v 0.4 0.8 -0.8
v 0.4 0.8 -1
v 0.9 0 0.6
v 0.9 0 0.2
v 0.9 0.4 0.6
v 0.9 0.4 0.2
v 1 0 1
v 1 0 0.6
v 1 0 -0.2
v 1 0 -0.7
v 1 0.4 1
v 1 0.4 0.6
v 1 0.4 -0.2
v 1 0.4 -0.7
v -1 0 1
v -1 0.4 1
v -0.4 0.4 1
v -0.4 0.8 1
v 0.4 0.4 1
v 0.4 0.8 1
v 1 0 1
v 1 0.4 1
v -1 0 -0.2
v -1 0.4 -0.2
v -0.4 0 -0.2
v -0.4 0.4 -0.2
v 0.4 0 -0.2
v 0.4 0.4 -0.2
v 1 0 -0.2
v 1 0.4 -0.2
v -1 0 0.6
v -1 0.4 0.6
v -0.9 0 0.6
v -0.9 0.4 0.6
v 0.9 0 0.6
v 0.9 0.4 0.6
v 1 0 0.6
v 1 0.4 0.6
v -0.9 0 0.2
v -0.9 0.4 0.2
v -0.4 0 0.2
v -0.4 0.4 0.2
v 0.4 0 0.2
v 0.4 0.4 0.2
v 0.9 0 0.2
v 0.9 0.4 0.2
v -1 0 -0.7
v -1 0.4 -0.7
v -0.4 0 -0.7
v -0.4 0.4 -0.7
v 0.4 0 -0.7
v 0.4 0.4 -0.7
v 1 0 -0.7
v 1 0.4 -0.7
v -0.4 0 -1
v -0.4 0.6 -1
v -0.4 0.8 -1
v -0.2 0.2 -1
v -0.2 0.3 -1
v -0.2 0.4 -1
v -0.2 0.6 -1
v -0.2 0.8 -1
v -0.1 0.2 -1
v -0.1 0.3 -1
v 0.2 0.2 -1
v 0.2 0.4 -1
v 0.2 0.6 -1
v 0.2 0.8 -1
v 0.4 0 -1
v 0.4 0.6 -1
v 0.4 0.8 -1
v -1 0 1
v 1 0 1
v -1 0 0.6
v -0.9 0 0.6
v 0.9 0 0.6
v 1 0 0.6
v -0.9 0 0.2
v -0.4 0 0.2
v 0.4 0 0.2
v 0.9 0 0.2
v -1 0 -0.2
v -0.4 0 -0.2
v 0.4 0 -0.2
v 1 0 -0.2
v -1 0 -0.7
v -0.4 0 -0.7
v 0.4 0 -0.7
v 1 0 -0.7
v -0.4 0 -1
v 0.4 0 -1
v -1 0.4 1
v -0.4 0.4 1
v 0.4 0.4 1
v 1 0.4 1
v -1 0.4 0.6
v -0.9 0.4 0.6
v 0.9 0.4 0.6
v 1 0.4 0.6
v -0.9 0.4 0.2
v -0.4 0.4 0.2
v 0.4 0.4 0.2
v 0.9 0.4 0.2
v -1 0.4 -0.2
v -0.4 0.4 -0.2
v 0.4 0.4 -0.2
v 1 0.4 -0.2
v -1 0.4 -0.7
v -0.4 0.4 -0.7
v 0.4 0.4 -0.7
v 1 0.4 -0.7
v -0.4 0.8 1
v 0.4 0.8 1
v -0.4 0.8 -0.8
v -0.2 0.8 -0.8
v 0.2 0.8 -0.8
v 0.4 0.8 -0.8
v -0.4 0.8 -1
v -0.2 0.8 -1
v 0.2 0.8 -1
v 0.4 0.8 -1

# faces
f 5/3/1 2/3/1 1/3/1
f 6/3/1 2/3/1 5/3/1
f 7/3/1 4/3/1 3/3/1
f 8/3/1 4/3/1 7/3/1
f 11/3/1 10/3/1 9/3/1
f 12/3/1 10/3/1 11/3/1
f 18/3/1 14/3/1 13/3/1
f 19/3/1 14/3/1 18/3/1
f 20/3/1 16/3/1 15/3/1
f 21/3/1 19/3/1 18/3/1
f 21/3/1 20/3/1 19/3/1
f 21/3/1 16/3/1 20/3/1
f 21/3/1 18/3/1 17/3/1
f 22/3/1 16/3/1 21/3/1
f 23/3/1 21/3/1 17/3/1
f 24/4/1 22/4/1 21/4/1
f 24/3/1 21/3/1 23/3/1
f 25/4/1 22/4/1 24/4/1
f 26/3/2 27/3/2 31/3/2
f 31/3/2 27/3/2 32/3/2
f 28/3/2 29/3/2 33/3/2
f 31/3/2 32/3/2 34/3/2
f 32/3/2 33/3/2 34/3/2
f 33/3/2 29/3/2 34/3/2
f 30/3/2 31/3/2 34/3/2
f 34/3/2 29/3/2 35/3/2
f 30/3/2 34/3/2 36/3/2
f 34/4/2 35/4/2 37/4/2
f 36/3/2 34/3/2 37/3/2
f 37/4/2 35/4/2 38/4/2
f 39/3/2 40/3/2 41/3/2
f 41/3/2 40/3/2 42/3/2
f 43/3/2 44/3/2 47/3/2
f 47/3/2 44/3/2 48/3/2
f 45/3/2 46/3/2 49/3/2
f 49/3/2 46/3/2 50/3/2
f 53/3/3 52/3/3 51/3/3
f 55/3/3 53/3/3 51/3/3
f 55/3/3 54/3/3 53/3/3
f 56/3/3 54/3/3 55/3/3
f 57/3/3 55/3/3 51/3/3
f 58/3/3 55/3/3 57/3/3
f 61/3/3 60/3/3 59/3/3
f 62/3/3 60/3/3 61/3/3
f 65/3/3 64/3/3 63/3/3
f 66/3/3 64/3/3 65/3/3
f 67/3/4 68/3/4 69/3/4
f 69/3/4 68/3/4 70/3/4
f 71/3/4 72/3/4 73/3/4
f 73/3/4 72/3/4 74/3/4
f 75/3/4 76/3/4 77/3/4
f 77/3/4 76/3/4 78/3/4
f 79/3/4 80/3/4 81/3/4
f 81/3/4 80/3/4 82/3/4
f 83/3/4 84/3/4 85/3/4
f 85/3/4 84/3/4 86/3/4
f 87/3/4 88/3/4 89/3/4
f 89/3/4 88/3/4 90/3/4
f 91/3/4 92/3/4 94/3/4
f 94/3/4 92/3/4 95/3/4
f 95/3/4 92/3/4 96/3/4
f 92/4/4 93/4/4 97/4/4
f 96/3/4 92/3/4 97/3/4
f 97/4/4 93/4/4 98/4/4
f 91/3/4 94/3/4 99/3/4
f 94/1/4 95/1/4 99/1/4
f 95/2/4 96/2/4 100/2/4
f 99/1/4 95/1/4 100/1/4
f 91/3/4 99/3/4 101/3/4
f 99/2/4 100/2/4 101/2/4
f 100/2/4 96/2/4 102/2/4
f 101/2/4 100/2/4 102/2/4
f 97/3/4 98/3/4 102/3/4
f 96/3/4 97/3/4 102/3/4
f 102/3/4 98/3/4 103/3/4
f 103/3/4 98/3/4 104/3/4
f 91/3/4 101/3/4 105/3/4
f 101/3/4 102/3/4 105/3/4
f 102/3/4 103/3/4 105/3/4
f 103/4/4 104/4/4 106/4/4
f 105/3/4 103/3/4 106/3/4
f 106/4/4 104/4/4 107/4/4
f 110/3/5 109/3/5 108/3/5
f 111/3/5 109/3/5 110/3/5
f 112/3/5 109/3/5 111/3/5
f 113/3/5 109/3/5 112/3/5
f 114/3/5 112/3/5 111/3/5
f 115/3/5 112/3/5 114/3/5
f 116/3/5 112/3/5 115/3/5
f 117/3/5 112/3/5 116/3/5
f 119/3/5 116/3/5 115/3/5
f 120/3/5 116/3/5 119/3/5
f 122/3/5 120/3/5 119/3/5
f 122/3/5 121/3/5 120/3/5
f 122/3/5 119/3/5 118/3/5
f 123/3/5 121/3/5 122/3/5
f 124/3/5 121/3/5 123/3/5
f 125/3/5 121/3/5 124/3/5
f 126/3/5 124/3/5 123/3/5
f 127/3/5 124/3/5 126/3/5
f 128/3/6 129/3/6 132/3/6
f 132/3/6 129/3/6 133/3/6
f 130/3/6 131/3/6 134/3/6
f 134/3/6 131/3/6 135/3/6
f 133/3/6 129/3/6 136/3/6
f 136/3/6 129/3/6 137/3/6
f 130/3/6 134/3/6 138/3/6
f 138/3/6 134/3/6 139/3/6
f 140/3/6 141/3/6 144/3/6
f 144/3/6 141/3/6 145/3/6
f 142/3/6 143/3/6 146/3/6
f 146/3/6 143/3/6 147/3/6
f 148/3/6 149/3/6 150/3/6
f 150/3/6 149/3/6 151/3/6
f 151/3/6 149/3/6 152/3/6
f 152/3/6 149/3/6 153/3/6
f 150/4/6 151/4/6 154/4/6
f 151/3/6 152/3/6 155/3/6
f 154/4/6 151/4/6 155/4/6
f 152/4/6 153/4/6 156/4/6
f 155/3/6 152/3/6 156/3/6
f 156/4/6 153/4/6 157/4/6
